# xmcd
#
# Track frame offsets:
#	150
#	10452
#	21227
#	37337
#	53130
#	63552
#	79482
#	94095
#	110945
#	125300
#	134565
#	149647
#	170342
#	180280
#	200255
#
# Disc length: 4440 seconds
#
# Revision: 0
# Processed by: cddbd v1.5.2PL0 Copyright (c) Steve Scherf et al.
# Submitted via: dBpowerAMP V4.0
#
DISCID=e111560f
DTITLE=Mari Bethânia - Coletânea
DYEAR=2006
DGENRE=MPB
TTITLE0=Maria Bethânia - Preconceito
TTITLE1=Maria Bethânia - Dois de Fevereiro
TTITLE2=Maria Bethânia - Lua vermelha
TTITLE3=Maria Bethânia - Os argonautas
TTITLE4=Maria Bethânia - Fósforo queimado
TTITLE5=Maria Bethânia - Todos os lugares
TTITLE6=Maria Bethânia - Baby
TTITLE7=Maria Bethânia - Prá dizer adeus
TTITLE8=Maria Bethânia - Duas contas
TTITLE9=Maria Bethânia - Lama
TTITLE10=Maria Bethânia - Êle falava nisso todo dia
TTITLE11=Maria Bethânia - Âmbar
TTITLE12=Maria Bethânia - Voltei pro morro
TTITLE13=Maria Bethânia - Alegria
TTITLE14=DATA
EXTD=
EXTT0=
EXTT1=
EXTT2=
EXTT3=
EXTT4=
EXTT5=
EXTT6=
EXTT7=
EXTT8=
EXTT9=
EXTT10=
EXTT11=
EXTT12=
EXTT13=
EXTT14=
PLAYORDER=
